<svg width="498" height="48" viewBox="0 0 2656 256" fill="none" xmlns="http://www.w3.org/2000/svg" xmlns:xlink="http://www.w3.org/1999/xlink" version="1.1">
    
        <g transform="translate(0, 0)">
          <svg xmlns="http://www.w3.org/2000/svg" width="256" height="256" fill="none" viewBox="0 0 256 256"><rect width="256" height="256" fill="#007ACC" rx="60"/><path fill="#fff" d="M56.6112 128.849L56.5299 139.333H73.1902H89.8505L89.8505 186.673V234.012H101.635H113.419V186.673L113.419 139.333H130.079H146.739V129.052C146.739 123.363 146.618 118.609 146.455 118.487C146.333 118.325 126.056 118.243 101.472 118.284L56.7331 118.406L56.6112 128.849Z"/><path fill="#fff" d="M206.567 118.108C213.068 119.734 218.026 122.619 222.577 127.332C224.934 129.852 228.428 134.444 228.713 135.541C228.794 135.866 217.66 143.343 210.915 147.528C210.671 147.691 209.695 146.634 208.598 145.009C205.307 140.214 201.853 138.141 196.57 137.776C188.809 137.247 183.811 141.311 183.852 148.097C183.852 150.088 184.136 151.266 184.949 152.892C186.655 156.427 189.825 158.54 199.781 162.847C218.107 170.731 225.949 175.932 230.826 183.327C236.271 191.576 237.49 204.742 233.792 214.535C229.729 225.181 219.651 232.414 205.469 234.812C201.081 235.584 190.678 235.462 185.965 234.609C175.684 232.78 165.932 227.701 159.918 221.037C157.561 218.436 152.969 211.65 153.254 211.162C153.375 211 154.432 210.35 155.61 209.659C156.748 209.009 161.056 206.53 165.119 204.173L172.474 199.906L174.018 202.182C176.172 205.473 180.885 209.984 183.73 211.487C191.897 215.795 203.113 215.185 208.639 210.228C210.996 208.074 211.971 205.839 211.971 202.548C211.971 199.581 211.605 198.281 210.061 196.046C208.07 193.202 204.007 190.804 192.466 185.806C179.26 180.117 173.571 176.582 168.37 170.974C165.363 167.724 162.518 162.522 161.34 158.174C160.365 154.558 160.121 145.496 160.893 141.839C163.615 129.08 173.246 120.181 187.143 117.539C191.654 116.686 202.137 117.011 206.567 118.108Z"/></svg>
        </g>
         
        <g transform="translate(300, 0)">
          <svg width="256" height="256" viewBox="0 0 256 256" fill="none" xmlns="http://www.w3.org/2000/svg">
<rect width="256" height="256" rx="60" fill="#F0DB4F"/>
<path d="M67.3117 213.932L86.9027 202.076C90.6821 208.777 94.1202 214.447 102.367 214.447C110.272 214.447 115.256 211.355 115.256 199.327V117.529H139.314V199.667C139.314 224.584 124.708 235.926 103.398 235.926C84.1533 235.926 72.9819 225.959 67.3113 213.93" fill="#323330"/>
<path d="M152.381 211.354L171.969 200.013C177.126 208.434 183.828 214.62 195.684 214.62C205.653 214.62 212.009 209.636 212.009 202.762C212.009 194.514 205.479 191.592 194.481 186.782L188.468 184.203C171.111 176.815 159.597 167.535 159.597 147.945C159.597 129.901 173.345 116.153 194.826 116.153C210.12 116.153 221.118 121.481 229.022 135.4L210.291 147.429C206.166 140.04 201.7 137.119 194.826 137.119C187.78 137.119 183.312 141.587 183.312 147.429C183.312 154.646 187.78 157.568 198.09 162.037L204.104 164.614C224.553 173.379 236.067 182.313 236.067 202.418C236.067 224.072 219.055 235.928 196.2 235.928C173.861 235.928 159.426 225.274 152.381 211.354" fill="#323330"/>
</svg>

        </g>
         
        <g transform="translate(600, 0)">
          <svg xmlns="http://www.w3.org/2000/svg" width="256" height="256" fill="none" viewBox="0 0 256 256"><rect width="256" height="256" fill="#E43717" rx="60"/><path fill="#fff" d="M226.574 125.551L218.184 120.353C218.113 119.535 218.033 118.719 217.945 117.907L225.169 111.18C225.903 110.496 226.232 109.483 226.033 108.504C225.84 107.52 225.15 106.71 224.212 106.364L214.98 102.924C214.749 102.125 214.506 101.332 214.258 100.535L220.011 92.5468C220.598 91.7345 220.718 90.6777 220.336 89.7566C219.953 88.8335 219.118 88.1723 218.138 88.0098L208.409 86.4275C208.031 85.6898 207.637 84.9636 207.239 84.2488L211.33 75.2668C211.748 74.3533 211.662 73.2983 211.104 72.4575C210.548 71.6242 209.606 71.1369 208.6 71.1751L198.719 71.5191C198.209 70.8808 197.689 70.2483 197.159 69.6272L199.434 60.0144C199.663 59.0379 199.375 58.0078 198.664 57.3007C197.958 56.5936 196.934 56.3012 195.949 56.5305L186.336 58.8047C185.713 58.2772 185.08 57.7555 184.44 57.2453L184.786 47.365C184.824 46.3655 184.336 45.4157 183.503 44.8615C182.668 44.3034 181.611 44.2193 180.693 44.634L171.729 48.7238C171.005 48.3263 170.279 47.9326 169.551 47.5523L167.964 37.8249C167.804 36.8387 167.142 36.0017 166.217 35.6271C165.294 35.243 164.23 35.3672 163.427 35.952L155.438 41.7044C154.65 41.454 153.859 41.2132 153.068 40.9839L149.627 31.7534C149.277 30.8131 148.467 30.1232 147.487 29.9283C146.504 29.7353 145.499 30.0621 144.811 30.7921L138.083 38.016C137.271 37.9262 136.453 37.844 135.637 37.7771L130.438 29.3683C129.912 28.5179 128.981 28 127.972 28C126.963 28 126.042 28.5179 125.526 29.3683L120.327 37.7771C119.509 37.844 118.691 37.9262 117.881 38.016L111.153 30.7921C110.471 30.0621 109.458 29.7353 108.477 29.9283C107.493 30.1251 106.682 30.8131 106.336 31.7534L102.896 40.9839C102.097 41.2132 101.306 41.4559 100.526 41.7044L92.5368 35.952C91.7245 35.3653 90.6657 35.2411 89.7463 35.6271C88.8232 36.0093 88.16 36.8464 87.9994 37.8249L86.413 47.5523C85.6791 47.9326 84.9528 48.3243 84.2342 48.7238L75.2702 44.634C74.3585 44.2174 73.3016 44.3034 72.4606 44.8615C71.6273 45.4157 71.1399 46.3655 71.1781 47.365L71.5221 57.2453C70.8838 57.7555 70.2511 58.2772 69.6261 58.8047L60.0123 56.5305C59.0356 56.3031 58.0054 56.5936 57.2983 57.3007C56.5873 58.0097 56.2987 59.0321 56.528 60.0144L58.7833 69.6272C58.2577 70.2502 57.7379 70.8808 57.2275 71.5191L47.3461 71.1751C46.3504 71.1465 45.3966 71.6242 44.8423 72.4575C44.2842 73.2869 44.2002 74.3494 44.6149 75.2668L48.7051 84.2488C48.3075 84.9693 47.9138 85.6955 47.5335 86.4275L37.805 88.0098C36.8168 88.1704 35.9835 88.8316 35.607 89.7566C35.2247 90.6835 35.3489 91.7441 35.9319 92.5468L41.6849 100.535C41.4345 101.324 41.1918 102.117 40.9624 102.924L31.7309 106.364C30.7943 106.714 30.1043 107.524 29.9094 108.504C29.7144 109.487 30.0413 110.492 30.7733 111.18L37.998 117.907C37.9082 118.719 37.8279 119.537 37.7591 120.353L29.3685 125.551C28.518 126.077 28 127.005 28 128.016C28 129.027 28.518 129.947 29.3685 130.463L37.7591 135.661C37.8279 136.479 37.9082 137.295 37.998 138.107L30.7733 144.834C30.0413 145.516 29.7144 146.529 29.9094 147.509C30.1043 148.494 30.7943 149.302 31.7309 149.65L40.9624 153.09C41.1918 153.889 41.4345 154.682 41.6849 155.479L35.9319 163.467C35.347 164.281 35.2228 165.338 35.607 166.257C35.9911 167.184 36.8264 167.845 37.8241 168.004L47.5526 169.586C47.9329 170.324 48.3228 171.05 48.7242 171.765L44.634 180.728C44.2174 181.639 44.3034 182.696 44.8615 183.537C45.4196 184.372 46.3695 184.86 47.3653 184.819L57.2275 184.474C57.7417 185.116 58.2597 185.744 58.7872 186.369L56.5318 195.982C56.3025 196.957 56.5911 197.97 57.3021 198.677C58.0074 199.39 59.0337 199.674 60.0161 199.445L69.63 197.19C70.2549 197.721 70.8876 198.237 71.526 198.746L71.1819 208.626C71.1437 209.625 71.6311 210.575 72.4644 211.129C73.2939 211.685 74.3566 211.77 75.274 211.353L84.238 207.263C84.9605 207.665 85.6868 208.054 86.4169 208.435L88.0032 218.162C88.1638 219.152 88.8251 219.989 89.7502 220.379C90.6733 220.763 91.7379 220.639 92.5407 220.056L100.53 214.304C101.319 214.554 102.112 214.799 102.919 215.028L106.359 224.258C106.709 225.195 107.519 225.889 108.5 226.08C109.482 226.278 110.488 225.95 111.176 225.216L117.904 217.992C118.716 218.086 119.534 218.164 120.35 218.237L125.549 226.626C126.072 227.473 127.003 227.995 127.995 227.995C128.987 227.995 129.926 227.475 130.461 226.626L135.66 218.237C136.478 218.164 137.294 218.086 138.106 217.992L144.834 225.216C145.516 225.95 146.529 226.278 147.51 226.08C148.494 225.887 149.304 225.195 149.65 224.258L153.091 215.028C153.889 214.799 154.683 214.554 155.48 214.304L163.469 220.056C164.281 220.639 165.34 220.763 166.259 220.379C167.184 219.999 167.846 219.16 168.006 218.162L169.593 208.435C170.327 208.054 171.053 207.659 171.772 207.263L180.736 211.353C181.647 211.77 182.704 211.685 183.545 211.129C184.378 210.571 184.864 209.625 184.828 208.626L184.484 198.746C185.122 198.235 185.755 197.721 186.378 197.19L195.991 199.445C196.968 199.674 197.998 199.39 198.706 198.677C199.417 197.968 199.705 196.949 199.476 195.982L197.22 186.369C197.748 185.744 198.268 185.116 198.776 184.474L208.658 184.819C209.653 184.86 210.607 184.372 211.161 183.537C211.72 182.704 211.806 181.643 211.387 180.728L207.297 171.765C207.696 171.041 208.088 170.314 208.467 169.586L218.195 168.004C219.185 167.845 220.018 167.184 220.393 166.257C220.775 165.334 220.655 164.27 220.068 163.467L214.315 155.479C214.564 154.689 214.806 153.896 215.038 153.09L224.269 149.65C225.208 149.298 225.899 148.49 226.091 147.509C226.289 146.527 225.961 145.522 225.227 144.834L218.002 138.107C218.09 137.295 218.17 136.477 218.241 135.661L226.632 130.463C227.482 129.939 228 129.008 228 128.016C228 127.025 227.484 126.086 226.633 125.551H226.574ZM170.382 195.306C167.171 194.614 165.145 191.445 165.833 188.235C166.519 185.024 169.675 182.979 172.886 183.667C176.097 184.353 178.142 187.527 177.454 190.738C176.766 193.949 173.612 195.994 170.401 195.306H170.382ZM167.534 176.004C164.61 175.377 161.724 177.238 161.112 180.17L158.131 194.082C148.937 198.249 138.635 200.58 127.932 200.58C116.923 200.58 106.526 198.153 97.1603 193.796L94.1786 179.883C93.5517 176.959 90.681 175.086 87.7567 175.717L75.467 178.354C73.1926 176.004 71.0711 173.5 69.1215 170.863H128.945C129.622 170.863 130.073 170.741 130.073 170.125V148.912C130.073 148.297 129.622 148.175 128.945 148.175H111.457V134.778H130.359C132.085 134.778 139.591 135.271 141.98 144.868C142.731 147.811 144.388 157.405 145.516 160.482C146.64 163.922 151.212 170.802 156.086 170.802H185.902C186.24 170.802 186.601 170.763 186.982 170.695C184.917 173.504 182.643 176.16 180.216 178.645L167.639 175.95L167.534 176.004ZM84.7751 195.019C81.5641 195.711 78.4104 193.666 77.7224 190.451C77.0362 187.241 79.0756 184.068 82.2904 183.38C85.5014 182.694 88.655 184.739 89.3431 187.948C90.0292 191.159 87.988 194.331 84.7751 195.019ZM62.0306 103.096C63.3609 106.096 62.0077 109.613 59.0108 110.95C56.0101 112.282 52.5124 110.928 51.1745 107.931C49.8366 104.934 51.1974 101.414 54.1943 100.076C57.1951 98.7463 60.6927 100.099 62.0306 103.096ZM55.0544 119.608L67.8601 113.913C70.5932 112.699 71.8356 109.498 70.6124 106.765L67.9748 100.803H78.334V147.433H57.5009C55.687 141.05 54.7104 134.323 54.7104 127.367C54.7104 124.71 54.8537 122.092 55.1289 119.512L55.0544 119.608ZM111.247 115.078V101.319H135.902C137.177 101.319 144.904 102.792 144.904 108.562C144.904 113.358 138.979 115.078 134.106 115.078H111.17H111.247ZM200.886 127.462C200.886 129.289 200.819 131.093 200.686 132.89H193.174C192.423 132.89 192.121 133.383 192.121 134.118V137.558C192.121 145.661 187.553 147.439 183.539 147.878C179.717 148.308 175.493 146.281 174.977 143.941C172.721 131.271 168.975 128.576 163.05 123.875C170.409 119.212 178.054 112.313 178.054 103.044C178.054 93.0876 171.231 86.8192 166.586 83.7424C160.05 79.4425 152.825 78.5825 150.875 78.5825H73.2767C83.8079 66.8485 98.1236 58.5161 114.178 55.4584L123.334 65.052C125.398 67.2116 128.819 67.3071 130.998 65.2279L141.242 55.4431C162.649 59.4373 180.806 72.7766 191.318 91.1803L184.304 107.004C183.094 109.737 184.329 112.948 187.056 114.152L200.55 120.152C200.783 122.541 200.905 124.968 200.905 127.414L200.886 127.462ZM123.288 47.3879C125.658 45.1137 129.423 45.2093 131.678 47.5809C133.934 49.9507 133.857 53.7155 131.481 55.9897C129.111 58.2639 125.346 58.1683 123.091 55.7948C120.836 53.425 120.912 49.6602 123.288 47.386V47.3879ZM192.859 103.383C194.187 100.382 197.694 99.0253 200.695 100.363C203.696 101.693 205.053 105.217 203.715 108.218C202.387 111.218 198.879 112.575 195.879 111.237C192.878 109.907 191.521 106.383 192.859 103.383Z"/></svg>
        </g>
         
        <g transform="translate(900, 0)">
          <svg xmlns="http://www.w3.org/2000/svg" width="256" height="256" fill="none" viewBox="0 0 256 256"><rect width="256" height="256" fill="#242938" rx="60"/><path fill="#00C4B3" d="M87.4494 87.005L75.8113 75.3612L75.8563 159.463L75.9969 163.39C76.0532 165.246 76.4047 167.327 76.9672 169.493L169.147 202.005L192.209 191.796L192.229 191.762L87.4438 87.005H87.4494Z"/><path fill="#22D3C5" d="M76.97 169.493H76.9785C76.97 169.459 76.956 169.42 76.9391 169.38C76.9588 169.423 76.9588 169.465 76.9672 169.493H76.97ZM192.187 191.796L169.124 202.005L76.9588 169.493C78.7166 176.254 82.6175 183.853 86.8081 187.999L116.874 217.916L183.778 218L192.159 191.796H192.187Z"/><path fill="#0075C9" d="M76.1263 75.364L40.2866 129.491C37.311 132.669 38.796 139.227 43.5856 144.059L64.2744 164.917L77.2794 169.501C76.7169 167.341 76.3625 165.282 76.3091 163.398L76.1685 159.472L76.1263 75.3696V75.364Z"/><path fill="#0075C9" d="M169.906 76.4469C167.741 75.8984 165.665 75.5525 163.795 75.499L159.638 75.3472L75.8113 75.3669L192.226 191.765L202.453 168.702L169.912 76.4525L169.906 76.4469Z"/><path fill="#00A8E1" d="M169.799 76.4271C169.836 76.4412 169.875 76.4496 169.906 76.4553V76.444C169.87 76.4356 169.836 76.4356 169.799 76.4215V76.4271ZM188.404 86.3215C184.171 82.0606 176.676 78.1653 169.906 76.4553L202.447 168.697L192.209 191.759L217.19 183.777L217.246 115.287L188.401 86.3187L188.404 86.3215Z"/><path fill="#00C4B3" d="M165.344 63.5234L144.532 42.8234C139.677 38.0506 133.119 36.56 129.969 39.53L75.845 75.3613L159.672 75.3416L163.828 75.4934C165.699 75.5497 167.777 75.8928 169.94 76.4413L165.35 63.5178L165.344 63.5234Z"/></svg>
        </g>
         
        <g transform="translate(1200, 0)">
          <svg xmlns="http://www.w3.org/2000/svg" width="256" height="256" fill="none" viewBox="0 0 256 256"><rect width="256" height="256" fill="#242938" rx="60"/><path fill="url(#paint0_linear_2_47)" d="M127.279 29C76.5066 29 79.6772 51.018 79.6772 51.018L79.7338 73.8284H128.185V80.6772H60.4893C60.4893 80.6772 28 76.9926 28 128.222C28 179.452 56.3573 177.636 56.3573 177.636H73.2812V153.863C73.2812 153.863 72.369 125.506 101.186 125.506H149.24C149.24 125.506 176.239 125.942 176.239 99.4123V55.5461C176.239 55.5461 180.338 29 127.279 29ZM100.563 44.339C105.384 44.339 109.28 48.2351 109.28 53.0556C109.28 57.8761 105.384 61.7723 100.563 61.7723C95.7426 61.7723 91.8465 57.8761 91.8465 53.0556C91.8465 48.2351 95.7426 44.339 100.563 44.339Z"/><path fill="url(#paint1_linear_2_47)" d="M128.721 227.958C179.493 227.958 176.323 205.941 176.323 205.941L176.266 183.13H127.815V176.281H195.511C195.511 176.281 228 179.966 228 128.736C228 77.5062 199.643 79.323 199.643 79.323H182.719V103.096C182.719 103.096 183.631 131.453 154.814 131.453H106.76C106.76 131.453 79.7607 131.016 79.7607 157.546V201.412C79.7607 201.412 75.6615 227.958 128.721 227.958ZM155.437 212.619C150.616 212.619 146.72 208.723 146.72 203.903C146.72 199.082 150.616 195.186 155.437 195.186C160.257 195.186 164.154 199.082 164.154 203.903C164.154 208.723 160.257 212.619 155.437 212.619Z"/><defs><linearGradient id="paint0_linear_2_47" x1="47.22" x2="146.333" y1="46.896" y2="145.02" gradientUnits="userSpaceOnUse"><stop stop-color="#387EB8"/><stop offset="1" stop-color="#366994"/></linearGradient><linearGradient id="paint1_linear_2_47" x1="108.056" x2="214.492" y1="109.905" y2="210.522" gradientUnits="userSpaceOnUse"><stop stop-color="#FFE052"/><stop offset="1" stop-color="#FFC331"/></linearGradient></defs></svg>
        </g>
         
        <g transform="translate(1500, 0)">
          <svg xmlns="http://www.w3.org/2000/svg" width="256" height="256" fill="none" viewBox="0 0 256 256"><rect width="256" height="256" fill="#242938" rx="60"/><path fill="#fff" d="M118.032 26.656C117.554 26.704 116.032 26.882 114.656 27.008C95.102 29.054 75.844 37.336 60.14 50.484C57.242 52.89 50.64 59.492 48.234 62.39C35.234 77.922 27.634 95.35 24.828 115.976C24.204 120.556 24.204 136.008 24.828 140.586C27.632 161.21 35.234 178.64 48.234 194.172C50.64 197.072 57.242 203.672 60.14 206.078C75.672 219.078 93.1 226.678 113.726 229.484C118.306 230.11 133.758 230.11 138.336 229.484C158.96 226.68 176.39 219.078 191.922 206.078C194.822 203.672 201.422 197.07 203.828 194.172C216.828 178.64 224.428 161.212 227.228 140.586C227.86 136.006 227.86 120.554 227.228 115.976C224.428 95.352 216.828 77.922 203.828 62.39C201.422 59.492 194.82 52.89 191.922 50.484C176.446 37.532 158.836 29.836 138.484 27.11C136.282 26.804 133.086 26.68 127.156 26.632C122.632 26.578 118.5 26.61 118.032 26.656V26.656ZM119.282 37.46C119.282 40.382 119.476 46.734 119.758 52.766C119.906 55.71 120.078 59.938 120.158 62.14C120.43 69.946 121.258 90.42 121.382 92.25L121.508 94.07L120.382 93.946C119.758 93.898 119.18 93.75 119.078 93.672C119.008 93.572 118.828 91.844 118.726 89.82C118.282 80.92 116.806 46.382 116.656 41.336L116.5 35.782L117.204 35.688C117.578 35.632 118.204 35.562 118.602 35.532L119.282 35.508V37.46ZM143.21 36.86C143.234 36.882 143.312 44.438 143.382 53.64C143.484 62.868 143.61 71.14 143.688 72.04C143.758 72.968 143.734 73.766 143.608 73.82C143.508 73.89 142.882 73.89 142.258 73.82L141.11 73.72L140.938 66.438C140.857 63.1304 140.763 59.823 140.658 56.516C140.46 52.086 140.282 37.062 140.438 36.688C140.532 36.408 140.812 36.382 141.858 36.562C142.586 36.71 143.188 36.836 143.21 36.86V36.86ZM85.368 45.234C85.524 45.46 86.696 59.242 88.148 77.266C88.626 83.398 89.094 89 89.172 89.696C89.296 90.968 89.272 91.024 88.468 91.524C88.024 91.796 87.57 92.024 87.468 92.024C87.398 92.024 87.25 91.374 87.172 90.57C86.82 87.32 85.468 71.618 84.524 60.266C83.968 53.586 83.468 47.61 83.398 46.96C83.274 45.86 83.298 45.758 83.946 45.414C84.742 44.984 85.196 44.914 85.366 45.234H85.368ZM154.21 50.266C154.914 50.516 154.984 50.64 155.14 52.062C155.39 54.562 155.312 66.516 155.04 66.516C154.312 66.516 152.812 65.664 152.688 65.188C152.608 64.89 152.54 61.344 152.54 57.312C152.54 49.188 152.438 49.664 154.21 50.266ZM108.024 51.438C108.024 52.11 108.204 55.836 108.398 59.766C108.602 63.686 108.828 68.664 108.93 70.82C109.102 75.172 109.15 75.016 107.476 75.118C106.648 75.14 106.648 75.14 106.602 73.89C106.554 73.196 106.43 71.016 106.274 69.016C106.148 67.016 105.852 62.688 105.648 59.39C105.512 56.9608 105.338 54.5338 105.126 52.11C104.976 50.86 105 50.812 105.672 50.562C106.078 50.414 106.772 50.29 107.226 50.29C108.024 50.266 108.024 50.266 108.024 51.438V51.438ZM177.39 54.868L178.242 55.21L178.422 58.562C178.492 60.39 178.546 64.342 178.492 67.322L178.422 72.766L177.368 72.242L176.32 71.742L176.242 63.438C176.196 58.868 176.218 54.992 176.266 54.812C176.366 54.438 176.366 54.438 177.39 54.868ZM131.734 58.14C131.882 58.29 132.234 70.414 132.258 76.57L132.282 80.274L131.11 80.094C130.43 80.014 129.882 79.946 129.86 79.922C129.78 79.868 129.032 61.342 129.032 59.54V57.688L130.304 57.836C131.032 57.936 131.656 58.062 131.734 58.14V58.14ZM189.32 59.914C189.626 60.266 189.672 65.742 189.75 95.946C189.82 130.632 189.82 131.532 189.374 131.532C189.055 131.512 188.748 131.398 188.494 131.204C188.118 130.93 188.07 127.906 187.946 98.274C187.844 80.32 187.718 64.014 187.648 62.04L187.492 58.438L188.218 58.96C188.648 59.266 189.126 59.688 189.32 59.914V59.914ZM166.89 65.04C167.016 65.14 167.14 66.562 167.164 68.196C167.29 73.718 167.312 107.602 167.188 107.704C167.14 107.75 166.688 107.624 166.188 107.43L165.288 107.054V64.514L165.992 64.664C166.368 64.764 166.766 64.914 166.892 65.04H166.89ZM97.876 66.438C97.946 67.118 98.07 68.64 98.148 69.89C98.228 71.118 98.398 73.922 98.548 76.094C98.852 80.494 98.796 80.774 97.374 80.774C96.626 80.774 96.524 80.694 96.422 79.946C96.172 78.468 95.296 66.164 95.422 65.968C95.546 65.788 96.852 65.344 97.446 65.288C97.602 65.266 97.796 65.788 97.876 66.438V66.438ZM56.516 72.82C56.79 75.468 57.336 81.024 57.742 85.148C58.164 89.274 58.516 92.774 58.516 92.922C58.516 93.226 56.586 94.172 56.39 93.976C56.266 93.852 53.766 71.718 53.766 70.718C53.766 70.118 55.686 67.594 55.938 67.868C56.016 67.914 56.266 70.14 56.516 72.82V72.82ZM154.562 75.446L155.29 75.866L155.312 81.274C155.336 84.218 155.392 87.524 155.392 88.594C155.438 90.844 155.164 91.218 153.812 90.75L153.04 90.47V88.32C153.04 87.126 152.96 83.648 152.86 80.57L152.71 75.016H153.29C153.586 75.016 154.164 75.218 154.562 75.446V75.446ZM67.492 85.148C67.946 89.946 68.664 98.048 69.14 103.148L69.992 112.408L69.016 113.374L68.07 114.352L67.89 112.374C67.79 111.274 67.29 106.18 66.766 101.024C66.2007 95.4916 65.6514 89.9576 65.118 84.422L64.414 77.218L65.39 76.32C66.266 75.492 66.368 75.468 66.54 75.92C66.64 76.172 67.062 80.32 67.492 85.148V85.148ZM48.766 88.172C49.312 93.102 50.766 106.204 52.016 117.282C53.266 128.36 54.436 139.032 54.664 141.032C54.868 143.032 55.21 146.062 55.414 147.79C55.766 150.71 55.766 150.914 55.368 151.21C54.766 151.664 54.516 151.61 54.516 151.086C54.516 150.86 54.29 148.96 54.016 146.914C53.562 143.484 52.812 137.68 51.14 124.656C50.6247 120.783 50.1247 116.909 49.64 113.032C49.14 109.25 48.414 103.626 48.008 100.524C47.608 97.422 46.938 92.124 46.508 88.696C46.062 85.296 45.788 82.274 45.86 81.946C46.04 81.274 47.508 78.922 47.664 79.07C47.71 79.14 48.21 83.218 48.764 88.17L48.766 88.172ZM41.11 98.946C41.484 101.954 42.188 107.43 42.664 111.148C43.132 114.852 43.734 119.476 44.008 121.408L44.484 124.908L43.96 125.36C43.664 125.61 43.36 125.704 43.258 125.61C43.164 125.508 42.96 124.508 42.812 123.406C42.1365 118.651 41.4439 113.898 40.734 109.148L38.96 96.898L39.532 95.196C39.836 94.274 40.156 93.524 40.234 93.524C40.336 93.524 40.71 95.976 41.11 98.944V98.946ZM178.39 95.672C178.742 96.024 178.796 97.572 178.796 109.054V122.032H178.094C176.57 122.032 176.594 122.406 176.494 108.204L176.422 95.274H177.218C177.64 95.274 178.196 95.446 178.39 95.672V95.672ZM123.656 100.148C129.304 101 134.236 102.578 139.11 105.078C142.258 106.704 143.758 107.828 147.258 111.178C152.46 116.158 155.664 120.508 158.664 126.658C163.04 135.61 164.744 143.532 166.89 164.79C167.868 174.32 169.14 191.594 169.414 198.67C169.494 200.726 169.664 204.102 169.82 206.17C170.094 210.578 170.414 209.976 166.54 211.85C161.164 214.454 155.984 216.25 149.164 217.93C140.812 219.976 135.406 220.624 127.156 220.656L121.156 220.68L121.204 217.804C121.204 216.226 121.352 212.554 121.508 209.68C122.258 195.75 122.102 178.172 121.132 168.414C120.578 162.814 119.508 156.014 118.906 154.514C118.782 154.188 119.352 153.914 121.828 153.062C126.36 151.484 130.282 149.508 130.882 148.54C131.962 146.688 130.032 144.032 127.578 144.032C127.158 144.032 125.882 144.484 124.704 145.008C119.102 147.586 107.876 150.608 101.398 151.288C96.922 151.766 89.968 151.484 85.148 150.608C82.524 150.132 77.82 148.36 73.89 146.336C69.368 143.984 66.594 140.86 65.766 137.156C65.312 135.156 65.438 131.156 66.016 128.906C66.64 126.43 68.39 122.828 69.992 120.726C77.118 111.352 91.82 103.226 106.898 100.376C111.704 99.476 118.5 99.376 123.658 100.148H123.656ZM200.796 100.922C201.696 101.296 201.796 101.398 201.796 102.25C201.852 109.078 201.696 124.68 201.57 125.33C201.546 125.554 200.25 125.578 199.696 125.382C199.352 125.258 199.296 123.906 199.296 112.874C199.296 104.976 199.398 100.524 199.546 100.524C199.672 100.524 200.25 100.704 200.796 100.922V100.922ZM211.726 114.656L212.626 115.032L212.454 135.734C212.25 162.118 212.226 162.89 211.274 165.164C209.726 168.89 209.804 169.64 209.954 153.29C210 145.11 210.124 136.836 210.18 134.906C210.226 132.986 210.274 127.554 210.304 122.828C210.304 117.124 210.374 114.282 210.554 114.282C210.704 114.282 211.226 114.454 211.726 114.656ZM61.344 120.882C61.492 122.906 61.438 123.102 60.71 124.702L59.914 126.406L59.618 123.906C59.14 119.906 59.14 119.726 60.086 119.132C60.516 118.828 60.968 118.632 61.04 118.68C61.118 118.726 61.266 119.726 61.344 120.882V120.882ZM45.884 135.962C46.11 138.008 47.86 151.61 48.764 158.29C50.11 168.618 50.21 170.094 49.61 169.47C49.54 169.39 48.96 165.914 48.36 161.742C44.46 134.782 44.484 134.962 44.812 134.758C45.484 134.304 45.712 134.554 45.882 135.96L45.884 135.962ZM63.89 147.414C64.04 148.04 64.766 154.814 64.766 155.64C64.766 156.336 63.866 156.992 63.468 156.586C63.344 156.46 63.016 154.336 62.766 151.89C62.492 149.414 62.218 146.836 62.14 146.164L61.992 144.914L62.868 145.914C63.368 146.46 63.812 147.134 63.89 147.414V147.414ZM84.07 156.836C84.344 157.086 84.524 158.086 84.742 160.79C85.118 165.664 85.172 165.29 84.148 165.29C83.094 165.29 83.118 165.368 82.774 160.96C82.422 156.484 82.422 156.54 83.094 156.54C83.422 156.54 83.844 156.688 84.07 156.836ZM103.876 157.21C103.922 157.46 104.046 158.96 104.148 160.54C104.228 162.118 104.454 165.664 104.648 168.414C105.352 178.514 105.376 179.796 104.954 179.796C104.476 179.796 104.422 179.422 103.874 172.29C103.631 168.844 103.355 165.401 103.046 161.96C102.828 159.242 102.672 156.96 102.75 156.914C103.024 156.61 103.75 156.836 103.876 157.21ZM56.868 162.016C57.016 162.242 57.96 170.242 59.14 181.172C59.492 184.468 59.836 187.648 59.914 188.242L60.04 189.322L59.414 188.922C58.938 188.594 58.766 188.274 58.766 187.696C58.766 186.116 57.686 175.742 56.866 169.39C56.39 165.79 56.016 162.618 56.016 162.312C56.016 161.79 56.616 161.586 56.868 162.016V162.016ZM201.172 172.468L201 182.922L200.374 183.842C198.946 185.946 199.024 186.342 199.102 174.642L199.148 163.914L200.07 162.96C200.57 162.46 201.07 162.04 201.17 162.04C201.25 162.04 201.25 166.742 201.17 172.468H201.172ZM178.046 189.048C178.172 203.578 178.14 204.704 177.742 205.148C177.492 205.422 177.266 205.602 177.196 205.524C177.016 205.328 176.766 173.64 176.968 173.468C177.07 173.368 177.32 173.32 177.548 173.344C177.868 173.414 177.946 175.196 178.048 189.046L178.046 189.048ZM96.376 179.094C96.546 180.64 97.172 188.07 97.422 191.57C97.57 193.922 97.57 194 97.022 194.17C96.726 194.274 96.374 194.25 96.274 194.126C96.102 193.946 95.546 188.398 94.874 179.844L94.694 177.796H95.476C96.196 177.796 96.25 177.844 96.376 179.094V179.094ZM76.718 187.844C76.89 188.024 77.016 188.648 77.016 189.274C77.016 189.922 77.32 193.296 77.64 196.796C78.594 206.376 78.672 207.672 78.242 207.422C77.594 207.046 77.016 206.476 77.142 206.328C77.196 206.228 77.094 204.976 76.89 203.548C76.6881 201.801 76.5214 200.05 76.39 198.296C76.296 196.852 76.07 194.196 75.868 192.422C75.39 188.046 75.422 187.546 75.968 187.546C76.2452 187.554 76.5108 187.66 76.718 187.844V187.844ZM88.546 204.672C88.626 205.226 88.774 207.272 88.874 209.226C89.046 212.976 88.968 213.25 87.946 212.476C87.648 212.25 87.446 211.304 87.148 208.454C86.626 203.296 86.594 203.5 87.57 203.602C88.296 203.672 88.398 203.774 88.546 204.672Z"/><path fill="#fff" d="M79.618 112.126C77.016 113.25 76.82 116.782 79.266 118.032C81.046 118.93 82.844 118.5 83.774 116.952C85.524 114.102 82.672 110.804 79.618 112.126V112.126ZM96.57 114.532C94.17 116 94.17 119.554 96.57 121.032C98.946 122.452 102.024 120.578 102.024 117.726C102.024 114.976 98.874 113.126 96.57 114.532Z"/></svg>
        </g>
         
        <g transform="translate(1800, 0)">
          <svg xmlns="http://www.w3.org/2000/svg" width="256" height="256" fill="none" viewBox="0 0 256 256"><rect width="256" height="256" fill="#242938" rx="60"/><path fill="#81CD39" d="M119.878 31.1164C124.797 28.3008 131.203 28.2883 136.117 31.1164C160.839 45.0855 185.569 59.0332 210.287 73.0108C214.937 75.6296 218.046 80.8038 217.999 86.1608V170.206C218.034 175.785 214.617 181.083 209.712 183.642C185.071 197.535 160.442 211.444 135.805 225.337C130.786 228.207 124.251 227.986 119.387 224.88C112 220.598 104.6 216.336 97.2121 212.058C95.7022 211.158 94.0004 210.442 92.9345 208.978C93.8766 207.708 95.5618 207.55 96.9309 206.995C100.014 206.014 102.847 204.44 105.679 202.913C106.396 202.423 107.27 202.611 107.957 203.049C114.274 206.671 120.536 210.399 126.874 213.986C128.226 214.767 129.595 213.73 130.751 213.086C154.931 199.419 179.141 185.805 203.318 172.134C204.214 171.703 204.709 170.752 204.636 169.771C204.653 142.046 204.64 114.317 204.645 86.5918C204.747 85.4785 204.103 84.455 203.096 83.999C178.541 70.1702 153.997 56.3205 129.446 42.4882C128.575 41.8893 127.426 41.8878 126.554 42.4837C102.002 56.3205 77.4638 70.1832 52.9124 84.011C51.9092 84.4675 51.236 85.4745 51.3554 86.5918C51.3596 114.317 51.3554 142.046 51.3554 169.775C51.2682 170.756 51.801 171.687 52.6906 172.109C59.2422 175.824 65.8024 179.513 72.3582 183.216C76.0516 185.203 80.5863 186.385 84.6555 184.862C88.2463 183.574 90.7633 179.909 90.6948 176.097C90.7288 148.534 90.6778 120.967 90.7203 93.4078C90.6309 92.1841 91.7912 91.1731 92.981 91.2885C96.1292 91.267 99.281 91.2461 102.429 91.297C103.743 91.267 104.647 92.5847 104.485 93.8174C104.472 121.555 104.519 149.293 104.464 177.03C104.472 184.423 101.435 192.467 94.5973 196.084C86.1737 200.447 75.7619 199.522 67.4399 195.338C60.2355 191.742 53.3603 187.498 46.2838 183.646C41.3661 181.101 37.966 175.782 38.0006 170.207V86.1608C37.949 80.6929 41.1825 75.4248 45.9764 72.8445C70.6133 58.9408 95.2461 45.0261 119.878 31.1164Z"/><path fill="#81CD39" d="M141.372 89.3351C152.117 88.6433 163.62 88.9255 173.289 94.2185C180.776 98.2754 184.926 106.789 185.058 115.106C184.849 116.227 183.676 116.846 182.605 116.769C179.488 116.765 176.369 116.812 173.252 116.748C171.929 116.799 171.161 115.58 170.995 114.411C170.099 110.431 167.928 106.49 164.183 104.57C158.433 101.692 151.767 101.837 145.497 101.897C140.92 102.139 135.998 102.536 132.12 105.227C129.143 107.266 128.239 111.382 129.301 114.697C130.303 117.077 133.05 117.845 135.299 118.553C148.248 121.94 161.97 121.602 174.672 126.059C179.931 127.876 185.075 131.409 186.875 136.915C189.23 144.295 188.198 153.115 182.947 159.039C178.689 163.914 172.488 166.568 166.303 168.009C158.075 169.844 149.536 169.891 141.18 169.076C133.323 168.18 125.146 166.116 119.081 160.763C113.894 156.259 111.361 149.241 111.612 142.469C111.672 141.325 112.811 140.527 113.907 140.621C117.046 140.596 120.186 140.587 123.325 140.626C124.58 140.536 125.509 141.62 125.574 142.802C126.152 146.593 127.577 150.573 130.884 152.82C137.264 156.937 145.271 156.655 152.577 156.77C158.63 156.502 165.425 156.421 170.364 152.42C172.97 150.138 173.742 146.32 173.038 143.036C172.275 140.263 169.374 138.971 166.883 138.126C154.1 134.083 140.224 135.55 127.565 130.977C122.425 129.161 117.455 125.727 115.481 120.447C112.726 112.974 113.988 103.73 119.789 98.0061C125.445 92.312 133.609 90.1192 141.372 89.3346V89.3351"/></svg>
        </g>
         
        <g transform="translate(2100, 0)">
          <svg xmlns="http://www.w3.org/2000/svg" width="256" height="256" fill="none" viewBox="0 0 256 256"><rect width="256" height="256" fill="#242938" rx="60"/><path fill="#fff" d="M101.634 182.619C101.634 182.619 93.9548 187.293 106.979 188.63C122.707 190.634 131.023 190.299 148.386 186.962C148.386 186.962 153.06 189.971 159.406 192.306C120.331 209.002 70.9089 191.304 101.634 182.619ZM96.6252 160.914C96.6252 160.914 88.2753 167.26 101.299 168.593C118.327 170.262 131.69 170.597 154.732 165.926C154.732 165.926 157.741 169.267 162.747 170.936C115.664 184.961 62.8975 172.269 96.6252 160.917V160.914ZM188.795 198.984C188.795 198.984 194.471 203.658 182.449 207.334C160.073 214.012 88.6104 216.019 68.5735 207.334C61.564 204.325 74.9197 199.982 79.2587 199.319C83.6012 198.317 85.9366 198.317 85.9366 198.317C78.2569 192.973 34.8424 209.337 63.8959 214.046C143.709 227.073 209.499 208.37 188.792 199.018L188.795 198.984ZM105.307 138.203C105.307 138.203 68.9052 146.888 92.2793 149.89C102.298 151.223 122 150.892 140.368 149.555C155.396 148.221 170.458 145.548 170.458 145.548C170.458 145.548 165.113 147.886 161.441 150.222C124.342 159.915 53.2107 155.573 73.5827 145.554C90.9526 137.204 105.307 138.203 105.307 138.203V138.203ZM170.423 174.604C207.83 155.234 190.46 136.534 178.438 138.873C175.429 139.54 174.096 140.207 174.096 140.207C174.096 140.207 175.097 138.203 177.436 137.54C201.145 129.19 219.849 162.586 169.757 175.61C169.757 175.61 170.092 175.275 170.423 174.608V174.604ZM108.979 227.364C145.046 229.703 200.147 226.03 201.484 208.995C201.484 208.995 198.817 215.673 171.764 220.683C141.042 226.359 102.968 225.692 80.5957 222.016C80.5957 222.016 85.2698 226.023 108.982 227.36L108.979 227.364Z"/><path fill="#F58219" d="M147.685 28C147.685 28 168.389 49.0388 127.983 80.7594C95.5891 106.472 120.632 121.168 127.983 137.861C108.948 120.833 95.2609 105.802 104.606 91.7762C118.331 71.0828 156.062 61.0644 147.685 28ZM137 123.842C146.683 134.862 134.333 144.881 134.333 144.881C134.333 144.881 159.044 132.195 147.692 116.494C137.338 101.466 129.324 94.1184 172.738 69.0689C172.738 69.0689 104.278 86.0968 137.007 123.835L137 123.842Z"/></svg>
        </g>
         
        <g transform="translate(2400, 0)">
          <svg xmlns="http://www.w3.org/2000/svg" width="256" height="256" fill="none" viewBox="0 0 256 256"><rect width="256" height="256" fill="#242938" rx="60"/><path fill="#fff" d="M49.158 100.246H77.566C85.904 100.316 91.946 102.72 95.692 107.454C99.438 112.188 100.674 118.654 99.402 126.852C98.908 130.598 97.812 134.272 96.116 137.876C94.49 141.48 92.23 144.73 89.332 147.628C85.798 151.302 82.018 153.634 77.99 154.624C73.962 155.614 69.792 156.108 65.482 156.108H52.762L48.734 176.248H34L49.158 100.246V100.246ZM61.56 112.33L55.2 144.13C55.624 144.2 56.048 144.236 56.472 144.236C56.966 144.236 57.462 144.236 57.956 144.236C64.74 144.306 70.394 143.636 74.916 142.222C79.438 140.738 82.478 135.58 84.032 126.746C85.304 119.326 84.032 115.05 80.216 113.92C76.47 112.79 71.772 112.26 66.118 112.33C65.27 112.4 64.458 112.436 63.68 112.436C62.974 112.436 62.232 112.436 61.454 112.436L61.56 112.33"/><path fill="#fff" d="M116.186 80H130.814L126.68 100.246H139.824C147.032 100.388 152.402 101.872 155.936 104.698C159.54 107.524 160.6 112.896 159.116 120.81L152.014 156.108H137.174L143.958 122.4C144.664 118.866 144.452 116.358 143.322 114.874C142.192 113.39 139.754 112.648 136.008 112.648L124.242 112.542L115.55 156.108H100.922L116.186 80Z"/><path fill="#fff" d="M174.824 100.246H203.232C211.57 100.316 217.612 102.72 221.358 107.454C225.104 112.188 226.34 118.654 225.068 126.852C224.574 130.598 223.478 134.272 221.782 137.876C220.156 141.48 217.896 144.73 214.998 147.628C211.464 151.302 207.684 153.634 203.656 154.624C199.628 155.614 195.458 156.108 191.148 156.108H178.428L174.4 176.248H159.666L174.824 100.246V100.246ZM187.226 112.33L180.866 144.13C181.29 144.2 181.714 144.236 182.138 144.236C182.632 144.236 183.128 144.236 183.622 144.236C190.406 144.306 196.06 143.636 200.582 142.222C205.104 140.738 208.144 135.58 209.698 126.746C210.97 119.326 209.698 115.05 205.882 113.92C202.136 112.79 197.438 112.26 191.784 112.33C190.936 112.4 190.124 112.436 189.346 112.436C188.64 112.436 187.898 112.436 187.12 112.436L187.226 112.33"/></svg>
        </g>
        
  </svg>